<svg xmlns="http://www.w3.org/2000/svg" xmlns:xlink="http://www.w3.org/1999/xlink" width="500" zoomAndPan="magnify" viewBox="0 0 375 284.999983" height="380" preserveAspectRatio="xMidYMid meet" version="1.0"><defs><g/><clipPath id="dd33f1edde"><path d="M 242 81 L 273 81 L 273 106 L 242 106 Z M 242 81 " clip-rule="nonzero"/></clipPath><clipPath id="351578595d"><path d="M 256.132812 0 L 379.953125 23.34375 L 356.332031 148.636719 L 232.511719 125.292969 Z M 256.132812 0 " clip-rule="nonzero"/></clipPath><clipPath id="3b0b0c7bc9"><path d="M 256.132812 0 L 379.953125 23.34375 L 356.332031 148.636719 L 232.511719 125.292969 Z M 256.132812 0 " clip-rule="nonzero"/></clipPath><clipPath id="cebc72a428"><path d="M 249 73 L 274 73 L 274 104 L 249 104 Z M 249 73 " clip-rule="nonzero"/></clipPath><clipPath id="34a30dd620"><path d="M 256.132812 0 L 379.953125 23.34375 L 356.332031 148.636719 L 232.511719 125.292969 Z M 256.132812 0 " clip-rule="nonzero"/></clipPath><clipPath id="1b548c3378"><path d="M 256.132812 0 L 379.953125 23.34375 L 356.332031 148.636719 L 232.511719 125.292969 Z M 256.132812 0 " clip-rule="nonzero"/></clipPath><clipPath id="0314bde2cd"><path d="M 272 102 L 279 102 L 279 110 L 272 110 Z M 272 102 " clip-rule="nonzero"/></clipPath><clipPath id="da7aeba302"><path d="M 256.132812 0 L 379.953125 23.34375 L 356.332031 148.636719 L 232.511719 125.292969 Z M 256.132812 0 " clip-rule="nonzero"/></clipPath><clipPath id="8d90f9d84e"><path d="M 256.132812 0 L 379.953125 23.34375 L 356.332031 148.636719 L 232.511719 125.292969 Z M 256.132812 0 " clip-rule="nonzero"/></clipPath><clipPath id="dcc66dad18"><path d="M 276 81 L 363 81 L 363 145 L 276 145 Z M 276 81 " clip-rule="nonzero"/></clipPath><clipPath id="19c29d6c85"><path d="M 256.132812 0 L 379.953125 23.34375 L 356.332031 148.636719 L 232.511719 125.292969 Z M 256.132812 0 " clip-rule="nonzero"/></clipPath><clipPath id="b89160e2f3"><path d="M 256.132812 0 L 379.953125 23.34375 L 356.332031 148.636719 L 232.511719 125.292969 Z M 256.132812 0 " clip-rule="nonzero"/></clipPath><clipPath id="fd89dc2147"><path d="M 249 7 L 339 7 L 339 109 L 249 109 Z M 249 7 " clip-rule="nonzero"/></clipPath><clipPath id="02ef0f917d"><path d="M 256.132812 0 L 379.953125 23.34375 L 356.332031 148.636719 L 232.511719 125.292969 Z M 256.132812 0 " clip-rule="nonzero"/></clipPath><clipPath id="1b0c710f73"><path d="M 256.132812 0 L 379.953125 23.34375 L 356.332031 148.636719 L 232.511719 125.292969 Z M 256.132812 0 " clip-rule="nonzero"/></clipPath><clipPath id="74f199e2d3"><rect x="0" width="265" y="0" height="114"/></clipPath><clipPath id="468733c96e"><rect x="0" width="347" y="0" height="129"/></clipPath></defs><rect x="-37.5" width="450" fill="#ffffff" y="-28.499998" height="341.99998" fill-opacity="1"/><rect x="-37.5" width="450" fill="#ffffff" y="-28.499998" height="341.99998" fill-opacity="1"/><g clip-path="url(#dd33f1edde)"><g clip-path="url(#351578595d)"><g clip-path="url(#3b0b0c7bc9)"><path fill="#362c2a" d="M 245.429688 83.160156 C 245.386719 83.058594 245.34375 82.957031 245.285156 82.867188 C 245.234375 82.773438 245.171875 82.691406 245.105469 82.613281 C 245.039062 82.539062 244.96875 82.46875 244.890625 82.410156 C 244.8125 82.355469 244.730469 82.304688 244.648438 82.269531 C 244.5625 82.234375 244.480469 82.207031 244.394531 82.191406 C 244.308594 82.175781 244.222656 82.171875 244.140625 82.179688 C 244.058594 82.1875 243.976562 82.203125 243.902344 82.226562 C 243.824219 82.25 243.753906 82.285156 243.6875 82.324219 C 243.617188 82.363281 243.558594 82.414062 243.5 82.46875 C 243.445312 82.523438 243.390625 82.578125 243.34375 82.644531 L 243.324219 82.667969 L 243.308594 82.695312 L 243.277344 82.746094 C 243.265625 82.761719 243.253906 82.78125 243.246094 82.800781 C 243.234375 82.816406 243.222656 82.835938 243.21875 82.851562 L 243.195312 82.898438 C 243.191406 82.90625 243.1875 82.914062 243.1875 82.921875 L 243.175781 82.949219 L 243.160156 83.007812 C 243.15625 83.015625 243.152344 83.023438 243.148438 83.035156 L 243.140625 83.070312 C 243.035156 83.414062 243.011719 83.765625 243.054688 84.121094 C 243.097656 84.472656 243.199219 84.832031 243.351562 85.183594 C 243.503906 85.535156 243.691406 85.878906 243.914062 86.210938 C 244.023438 86.378906 244.144531 86.539062 244.265625 86.699219 L 244.308594 86.761719 L 244.347656 86.808594 C 244.359375 86.824219 244.371094 86.835938 244.386719 86.855469 L 244.4375 86.910156 L 244.644531 87.128906 C 244.773438 87.269531 244.933594 87.421875 245.082031 87.570312 C 245.230469 87.722656 245.386719 87.867188 245.539062 88.011719 C 245.691406 88.160156 245.855469 88.300781 246.015625 88.441406 C 246.171875 88.585938 246.339844 88.722656 246.503906 88.859375 C 246.585938 88.929688 246.664062 89 246.75 89.066406 L 247 89.269531 C 247.085938 89.335938 247.167969 89.40625 247.253906 89.472656 L 247.507812 89.671875 C 248.195312 90.191406 248.898438 90.703125 249.625 91.183594 L 250.167969 91.546875 C 250.351562 91.664062 250.53125 91.785156 250.71875 91.902344 C 250.902344 92.019531 251.085938 92.136719 251.273438 92.25 C 251.460938 92.363281 251.644531 92.480469 251.835938 92.589844 C 251.929688 92.644531 252.019531 92.703125 252.113281 92.757812 L 252.40625 92.933594 L 252.699219 93.105469 L 252.984375 93.28125 L 253.273438 93.457031 C 253.367188 93.515625 253.464844 93.578125 253.558594 93.628906 L 254.121094 93.960938 C 254.5 94.183594 254.878906 94.40625 255.265625 94.617188 C 255.648438 94.835938 256.039062 95.039062 256.425781 95.253906 L 257.011719 95.570312 C 257.207031 95.675781 257.40625 95.777344 257.601562 95.882812 C 257.796875 95.988281 257.996094 96.089844 258.195312 96.195312 C 258.394531 96.296875 258.589844 96.402344 258.789062 96.507812 C 259.578125 96.929688 260.382812 97.34375 261.179688 97.78125 C 261.578125 97.996094 261.980469 98.210938 262.375 98.4375 C 262.773438 98.664062 263.167969 98.886719 263.5625 99.117188 C 263.964844 99.34375 264.347656 99.589844 264.738281 99.824219 L 265.300781 100.164062 C 265.496094 100.273438 265.683594 100.390625 265.878906 100.503906 L 266.460938 100.84375 C 266.652344 100.957031 266.851562 101.066406 267.046875 101.183594 C 267.433594 101.417969 267.828125 101.648438 268.21875 101.886719 C 268.609375 102.128906 269 102.371094 269.382812 102.628906 C 269.574219 102.757812 269.765625 102.886719 269.953125 103.019531 C 270.050781 103.085938 270.144531 103.152344 270.238281 103.21875 C 270.332031 103.289062 270.421875 103.359375 270.515625 103.429688 C 271.257812 103.980469 271.964844 104.582031 272.59375 105.253906 L 272.496094 105.386719 C 271.773438 104.851562 271.011719 104.367188 270.230469 103.925781 C 269.445312 103.480469 268.640625 103.078125 267.828125 102.6875 L 265.382812 101.523438 C 265.175781 101.425781 264.972656 101.324219 264.769531 101.226562 L 264.164062 100.921875 C 263.761719 100.710938 263.363281 100.503906 262.960938 100.300781 C 261.351562 99.484375 259.71875 98.710938 258.097656 97.914062 C 257.285156 97.515625 256.476562 97.113281 255.671875 96.695312 C 254.871094 96.277344 254.074219 95.839844 253.289062 95.386719 L 252.707031 95.039062 C 252.609375 94.980469 252.511719 94.921875 252.417969 94.863281 L 252.128906 94.683594 C 251.75 94.4375 251.355469 94.21875 250.972656 93.972656 C 250.207031 93.492188 249.449219 92.992188 248.710938 92.464844 C 247.972656 91.9375 247.253906 91.382812 246.558594 90.796875 L 246.300781 90.578125 C 246.214844 90.503906 246.128906 90.425781 246.042969 90.351562 C 245.875 90.199219 245.703125 90.050781 245.539062 89.894531 C 245.375 89.738281 245.210938 89.582031 245.050781 89.421875 C 244.890625 89.257812 244.726562 89.101562 244.574219 88.929688 C 244.421875 88.765625 244.261719 88.601562 244.117188 88.425781 C 243.96875 88.253906 243.816406 88.085938 243.675781 87.902344 L 243.460938 87.636719 L 243.40625 87.566406 C 243.390625 87.542969 243.375 87.519531 243.359375 87.496094 C 243.324219 87.445312 243.292969 87.398438 243.261719 87.347656 C 243.140625 87.15625 243.023438 86.960938 242.914062 86.757812 C 242.695312 86.351562 242.507812 85.929688 242.375 85.488281 C 242.238281 85.046875 242.15625 84.585938 242.160156 84.117188 C 242.164062 83.652344 242.261719 83.179688 242.464844 82.757812 C 242.515625 82.652344 242.570312 82.542969 242.644531 82.445312 C 242.679688 82.398438 242.71875 82.351562 242.753906 82.304688 L 242.816406 82.238281 L 242.84375 82.207031 L 242.878906 82.175781 L 242.941406 82.113281 L 243.011719 82.058594 L 243.046875 82.027344 L 243.082031 82.003906 L 243.15625 81.949219 C 243.257812 81.886719 243.363281 81.832031 243.476562 81.789062 C 243.59375 81.746094 243.707031 81.714844 243.828125 81.699219 C 243.949219 81.6875 244.070312 81.6875 244.191406 81.699219 C 244.3125 81.714844 244.429688 81.742188 244.542969 81.785156 C 244.65625 81.824219 244.761719 81.882812 244.863281 81.949219 C 244.960938 82.015625 245.050781 82.097656 245.132812 82.183594 C 245.214844 82.269531 245.285156 82.367188 245.347656 82.46875 C 245.464844 82.675781 245.546875 82.898438 245.589844 83.128906 Z M 245.429688 83.160156 " fill-opacity="1" fill-rule="nonzero"/></g></g></g><g clip-path="url(#cebc72a428)"><g clip-path="url(#34a30dd620)"><g clip-path="url(#1b548c3378)"><path fill="#362c2a" d="M 252.546875 75.640625 C 252.527344 75.53125 252.507812 75.425781 252.476562 75.324219 C 252.449219 75.222656 252.40625 75.125 252.363281 75.035156 C 252.3125 74.945312 252.261719 74.859375 252.199219 74.785156 C 252.136719 74.710938 252.070312 74.644531 251.996094 74.589844 C 251.925781 74.535156 251.847656 74.488281 251.769531 74.453125 C 251.6875 74.417969 251.609375 74.394531 251.527344 74.378906 C 251.445312 74.367188 251.363281 74.367188 251.285156 74.371094 C 251.203125 74.375 251.125 74.390625 251.050781 74.414062 C 250.976562 74.4375 250.90625 74.472656 250.835938 74.507812 C 250.769531 74.550781 250.703125 74.589844 250.640625 74.644531 L 250.617188 74.664062 L 250.597656 74.683594 L 250.550781 74.726562 C 250.539062 74.742188 250.523438 74.757812 250.511719 74.773438 C 250.496094 74.785156 250.480469 74.800781 250.472656 74.816406 L 250.4375 74.855469 C 250.433594 74.863281 250.429688 74.867188 250.421875 74.878906 L 250.40625 74.902344 L 250.375 74.953125 C 250.371094 74.960938 250.367188 74.96875 250.359375 74.980469 L 250.34375 75.007812 C 250.160156 75.316406 250.050781 75.652344 250.011719 76.007812 C 249.964844 76.363281 249.980469 76.734375 250.046875 77.113281 C 250.109375 77.488281 250.210938 77.871094 250.347656 78.246094 C 250.414062 78.433594 250.492188 78.617188 250.570312 78.804688 L 250.601562 78.875 L 250.628906 78.925781 C 250.636719 78.945312 250.640625 78.960938 250.652344 78.980469 L 250.691406 79.046875 L 250.839844 79.308594 C 250.929688 79.480469 251.046875 79.664062 251.15625 79.84375 C 251.265625 80.023438 251.382812 80.203125 251.5 80.382812 C 251.609375 80.5625 251.734375 80.738281 251.855469 80.914062 C 251.976562 81.089844 252.105469 81.261719 252.230469 81.433594 C 252.296875 81.519531 252.355469 81.609375 252.421875 81.695312 L 252.617188 81.953125 C 252.683594 82.035156 252.746094 82.125 252.8125 82.207031 L 253.015625 82.460938 C 253.558594 83.128906 254.117188 83.792969 254.707031 84.433594 L 255.152344 84.914062 C 255.300781 85.074219 255.449219 85.234375 255.601562 85.390625 C 255.75 85.550781 255.902344 85.707031 256.058594 85.859375 C 256.210938 86.015625 256.363281 86.171875 256.523438 86.324219 C 256.601562 86.402344 256.675781 86.480469 256.753906 86.558594 L 257.238281 87.035156 L 257.476562 87.273438 L 257.710938 87.511719 C 257.789062 87.59375 257.867188 87.671875 257.949219 87.746094 L 258.417969 88.203125 C 258.734375 88.507812 259.046875 88.8125 259.371094 89.113281 C 259.691406 89.414062 260.023438 89.707031 260.347656 90.007812 L 260.839844 90.453125 C 261.003906 90.601562 261.171875 90.75 261.339844 90.898438 C 261.503906 91.046875 261.671875 91.195312 261.839844 91.339844 C 262.011719 91.488281 262.175781 91.640625 262.34375 91.789062 C 263.011719 92.386719 263.695312 92.976562 264.363281 93.59375 C 264.699219 93.898438 265.035156 94.203125 265.367188 94.515625 C 265.699219 94.828125 266.03125 95.140625 266.359375 95.460938 C 266.695312 95.777344 267.011719 96.105469 267.332031 96.425781 L 267.800781 96.886719 C 267.960938 97.042969 268.117188 97.199219 268.277344 97.355469 L 268.761719 97.824219 C 268.925781 97.980469 269.089844 98.136719 269.25 98.296875 C 269.574219 98.613281 269.902344 98.929688 270.222656 99.257812 C 270.542969 99.585938 270.867188 99.914062 271.175781 100.253906 C 271.332031 100.425781 271.488281 100.59375 271.636719 100.769531 C 271.714844 100.859375 271.789062 100.945312 271.867188 101.03125 C 271.941406 101.121094 272.011719 101.210938 272.085938 101.300781 C 272.675781 102.015625 273.21875 102.769531 273.671875 103.570312 L 273.542969 103.675781 C 272.972656 102.980469 272.347656 102.332031 271.691406 101.714844 C 271.035156 101.097656 270.351562 100.511719 269.652344 99.941406 L 267.554688 98.226562 C 267.378906 98.085938 267.203125 97.9375 267.03125 97.792969 L 266.511719 97.351562 C 266.175781 97.054688 265.835938 96.757812 265.492188 96.464844 C 264.125 95.289062 262.726562 94.148438 261.335938 92.988281 C 260.644531 92.410156 259.953125 91.824219 259.273438 91.226562 C 258.59375 90.628906 257.925781 90.019531 257.269531 89.390625 L 256.789062 88.914062 C 256.707031 88.832031 256.628906 88.753906 256.546875 88.671875 L 256.3125 88.429688 C 256 88.101562 255.671875 87.792969 255.359375 87.464844 C 254.726562 86.816406 254.113281 86.148438 253.519531 85.460938 C 252.929688 84.773438 252.363281 84.0625 251.828125 83.328125 L 251.628906 83.054688 C 251.558594 82.960938 251.496094 82.867188 251.433594 82.773438 C 251.304688 82.585938 251.171875 82.402344 251.054688 82.210938 C 250.929688 82.019531 250.804688 81.828125 250.691406 81.632812 C 250.574219 81.4375 250.453125 81.246094 250.34375 81.042969 C 250.234375 80.84375 250.117188 80.648438 250.019531 80.445312 C 249.914062 80.242188 249.808594 80.042969 249.714844 79.832031 L 249.570312 79.519531 L 249.53125 79.441406 C 249.523438 79.414062 249.511719 79.386719 249.503906 79.359375 C 249.480469 79.304688 249.464844 79.25 249.445312 79.195312 C 249.371094 78.976562 249.304688 78.757812 249.246094 78.535156 C 249.132812 78.09375 249.050781 77.636719 249.023438 77.175781 C 249 76.714844 249.027344 76.246094 249.144531 75.792969 C 249.257812 75.339844 249.46875 74.90625 249.765625 74.542969 C 249.839844 74.453125 249.917969 74.363281 250.011719 74.285156 C 250.058594 74.246094 250.105469 74.210938 250.152344 74.175781 L 250.226562 74.125 L 250.382812 74.03125 L 250.460938 73.996094 L 250.503906 73.976562 L 250.542969 73.957031 L 250.628906 73.925781 C 250.742188 73.886719 250.859375 73.859375 250.980469 73.84375 C 251.101562 73.832031 251.222656 73.828125 251.339844 73.84375 C 251.460938 73.859375 251.578125 73.886719 251.691406 73.925781 C 251.804688 73.96875 251.914062 74.023438 252.015625 74.09375 C 252.113281 74.160156 252.203125 74.242188 252.285156 74.328125 C 252.367188 74.417969 252.433594 74.519531 252.492188 74.621094 C 252.550781 74.726562 252.59375 74.835938 252.632812 74.949219 C 252.699219 75.179688 252.722656 75.417969 252.710938 75.648438 Z M 252.546875 75.640625 " fill-opacity="1" fill-rule="nonzero"/></g></g></g><g clip-path="url(#0314bde2cd)"><g clip-path="url(#da7aeba302)"><g clip-path="url(#8d90f9d84e)"><path fill="#362c2a" d="M 273.695312 103.617188 C 273.496094 104.011719 273.359375 104.398438 273.285156 104.777344 C 273.25 104.964844 273.222656 105.148438 273.214844 105.332031 C 273.207031 105.515625 273.210938 105.695312 273.230469 105.867188 C 273.246094 106.042969 273.273438 106.210938 273.316406 106.375 C 273.355469 106.535156 273.402344 106.695312 273.464844 106.84375 C 273.585938 107.136719 273.742188 107.402344 273.921875 107.609375 C 274.101562 107.820312 274.300781 107.96875 274.488281 108.054688 C 274.675781 108.136719 274.851562 108.167969 275.042969 108.164062 C 275.234375 108.15625 275.453125 108.117188 275.695312 108.023438 C 275.816406 107.980469 275.945312 107.921875 276.074219 107.851562 L 276.125 107.828125 L 276.167969 107.800781 C 276.199219 107.785156 276.230469 107.769531 276.257812 107.75 L 276.339844 107.699219 C 276.367188 107.679688 276.390625 107.660156 276.417969 107.644531 C 276.625 107.5 276.78125 107.34375 276.902344 107.171875 C 277.019531 107.003906 277.109375 106.8125 277.164062 106.582031 C 277.167969 106.554688 277.175781 106.527344 277.179688 106.496094 C 277.183594 106.46875 277.191406 106.4375 277.195312 106.410156 C 277.203125 106.347656 277.210938 106.285156 277.214844 106.222656 C 277.21875 106.09375 277.21875 105.960938 277.199219 105.824219 C 277.171875 105.546875 277.097656 105.261719 276.984375 104.984375 C 276.871094 104.707031 276.714844 104.445312 276.523438 104.210938 L 276.453125 104.125 L 276.375 104.046875 C 276.347656 104.019531 276.320312 103.992188 276.292969 103.96875 C 276.265625 103.945312 276.238281 103.917969 276.210938 103.894531 C 276.09375 103.792969 275.96875 103.710938 275.835938 103.636719 C 275.699219 103.5625 275.554688 103.507812 275.394531 103.464844 C 275.234375 103.421875 275.0625 103.40625 274.878906 103.398438 C 274.695312 103.398438 274.503906 103.414062 274.304688 103.457031 C 274.105469 103.496094 273.902344 103.554688 273.691406 103.621094 L 273.585938 103.492188 C 273.917969 103.21875 274.292969 102.984375 274.710938 102.851562 C 275.125 102.714844 275.582031 102.683594 276.015625 102.765625 C 276.449219 102.851562 276.859375 103.046875 277.210938 103.308594 C 277.5625 103.574219 277.863281 103.902344 278.101562 104.269531 C 278.339844 104.636719 278.519531 105.039062 278.628906 105.46875 C 278.734375 105.894531 278.773438 106.339844 278.71875 106.78125 C 278.664062 107.21875 278.515625 107.652344 278.28125 108.03125 C 278.164062 108.21875 278.027344 108.398438 277.875 108.558594 C 277.722656 108.71875 277.550781 108.859375 277.371094 108.988281 C 277.195312 109.117188 277 109.226562 276.804688 109.324219 C 276.609375 109.421875 276.410156 109.503906 276.199219 109.574219 C 275.78125 109.707031 275.332031 109.773438 274.886719 109.726562 C 274.441406 109.683594 274.003906 109.519531 273.640625 109.261719 C 273.457031 109.132812 273.289062 108.980469 273.144531 108.8125 C 272.996094 108.644531 272.871094 108.460938 272.765625 108.269531 C 272.550781 107.886719 272.410156 107.464844 272.339844 107.03125 C 272.273438 106.601562 272.273438 106.160156 272.34375 105.730469 C 272.417969 105.300781 272.566406 104.882812 272.773438 104.503906 C 272.984375 104.125 273.261719 103.785156 273.582031 103.496094 Z M 273.695312 103.617188 " fill-opacity="1" fill-rule="nonzero"/></g></g></g><g clip-path="url(#dcc66dad18)"><g clip-path="url(#19c29d6c85)"><g clip-path="url(#b89160e2f3)"><path fill="#362c2a" d="M 276.589844 108.519531 C 278.0625 109.375 279.433594 110.375 280.753906 111.429688 C 281.410156 111.960938 282.058594 112.503906 282.691406 113.058594 C 283.328125 113.613281 283.949219 114.179688 284.5625 114.753906 C 285.792969 115.90625 286.992188 117.085938 288.167969 118.285156 C 288.757812 118.882812 289.339844 119.488281 289.917969 120.097656 C 290.496094 120.707031 291.070312 121.316406 291.640625 121.933594 C 293.925781 124.390625 296.148438 126.898438 298.382812 129.382812 C 299.496094 130.628906 300.613281 131.867188 301.746094 133.078125 C 302.3125 133.683594 302.886719 134.277344 303.46875 134.851562 C 303.761719 135.136719 304.054688 135.417969 304.351562 135.6875 C 304.648438 135.957031 304.949219 136.214844 305.246094 136.433594 L 305.132812 136.363281 C 305.488281 136.554688 305.875 136.710938 306.257812 136.820312 C 306.640625 136.925781 307.027344 136.980469 307.367188 136.960938 C 307.539062 136.953125 307.695312 136.925781 307.828125 136.886719 C 307.960938 136.839844 308.074219 136.785156 308.167969 136.710938 C 308.265625 136.640625 308.34375 136.550781 308.417969 136.4375 C 308.488281 136.328125 308.550781 136.191406 308.597656 136.035156 L 308.609375 135.992188 L 308.640625 135.921875 C 308.691406 135.804688 308.722656 135.679688 308.730469 135.53125 C 308.738281 135.382812 308.726562 135.214844 308.6875 135.035156 C 308.613281 134.675781 308.453125 134.28125 308.246094 133.890625 C 308.035156 133.496094 307.78125 133.105469 307.503906 132.722656 C 307.222656 132.339844 306.921875 131.964844 306.605469 131.597656 C 305.96875 130.863281 305.277344 130.15625 304.558594 129.46875 C 303.84375 128.785156 303.097656 128.117188 302.339844 127.464844 C 300.816406 126.15625 299.238281 124.90625 297.628906 123.691406 C 296.824219 123.082031 296.011719 122.480469 295.191406 121.886719 C 294.375 121.292969 293.550781 120.703125 292.726562 120.117188 C 291.898438 119.535156 291.066406 118.953125 290.230469 118.378906 C 289.394531 117.800781 288.558594 117.226562 287.714844 116.636719 C 287.503906 116.492188 287.292969 116.34375 287.082031 116.1875 C 286.972656 116.113281 286.867188 116.035156 286.757812 115.953125 C 286.648438 115.875 286.539062 115.792969 286.417969 115.695312 L 286.386719 115.671875 C 286.386719 115.667969 286.414062 115.6875 286.375 115.660156 L 286.285156 115.589844 C 286.226562 115.546875 286.167969 115.5 286.113281 115.453125 C 286 115.363281 285.890625 115.269531 285.78125 115.171875 C 285.5625 114.976562 285.351562 114.773438 285.144531 114.539062 C 284.9375 114.308594 284.734375 114.054688 284.546875 113.726562 C 284.453125 113.5625 284.363281 113.378906 284.289062 113.152344 C 284.21875 112.929688 284.160156 112.65625 284.179688 112.335938 C 284.191406 112.179688 284.222656 112.011719 284.277344 111.847656 C 284.332031 111.683594 284.40625 111.53125 284.496094 111.394531 C 284.589844 111.257812 284.6875 111.148438 284.792969 111.046875 C 284.84375 111 284.890625 110.957031 284.957031 110.90625 C 285.023438 110.859375 284.941406 110.90625 285.128906 110.785156 C 285.203125 110.746094 285.238281 110.730469 285.28125 110.707031 C 285.4375 110.640625 285.550781 110.609375 285.664062 110.582031 C 285.773438 110.554688 285.875 110.535156 285.972656 110.523438 C 286.167969 110.496094 286.34375 110.484375 286.515625 110.484375 C 286.859375 110.484375 287.167969 110.519531 287.46875 110.566406 C 287.765625 110.613281 288.050781 110.675781 288.328125 110.75 C 288.605469 110.820312 288.882812 110.910156 289.121094 110.984375 C 289.367188 111.0625 289.613281 111.144531 289.859375 111.226562 C 290.351562 111.390625 290.84375 111.5625 291.332031 111.738281 C 291.824219 111.917969 292.3125 112.105469 292.796875 112.296875 C 294.734375 113.074219 296.632812 113.992188 298.4375 115.078125 C 300.246094 116.15625 301.960938 117.410156 303.542969 118.808594 C 303.738281 118.984375 303.9375 119.160156 304.128906 119.339844 C 304.324219 119.515625 304.515625 119.703125 304.710938 119.886719 C 304.808594 119.980469 304.894531 120.074219 304.988281 120.164062 L 305.265625 120.445312 C 305.445312 120.628906 305.628906 120.8125 305.804688 121 C 306.523438 121.746094 307.222656 122.5 307.910156 123.261719 C 309.289062 124.785156 310.625 126.324219 311.96875 127.832031 C 313.316406 129.34375 314.675781 130.824219 316.097656 132.226562 C 316.804688 132.929688 317.527344 133.613281 318.269531 134.273438 C 319.015625 134.941406 319.777344 135.589844 320.550781 136.21875 C 322.09375 137.476562 323.699219 138.65625 325.371094 139.691406 C 326.210938 140.210938 327.066406 140.695312 327.9375 141.132812 C 328.808594 141.570312 329.699219 141.960938 330.605469 142.289062 C 332.417969 142.945312 334.300781 143.351562 336.175781 143.367188 C 337.113281 143.378906 338.046875 143.289062 338.960938 143.101562 C 339.875 142.917969 340.765625 142.628906 341.625 142.25 C 342.480469 141.871094 343.304688 141.398438 344.085938 140.859375 C 344.1875 140.789062 344.269531 140.730469 344.355469 140.667969 C 344.445312 140.597656 344.53125 140.523438 344.621094 140.453125 L 344.6875 140.398438 L 344.753906 140.339844 L 344.894531 140.222656 L 345.03125 140.101562 L 345.171875 139.984375 C 345.535156 139.660156 345.894531 139.328125 346.246094 138.988281 C 346.59375 138.644531 346.9375 138.292969 347.273438 137.933594 C 347.605469 137.570312 347.933594 137.203125 348.253906 136.828125 C 348.898438 136.078125 349.515625 135.296875 350.113281 134.5 C 350.707031 133.699219 351.285156 132.882812 351.847656 132.050781 C 352.128906 131.632812 352.410156 131.214844 352.683594 130.792969 L 353.097656 130.160156 L 353.316406 129.820312 L 353.371094 129.738281 L 353.433594 129.652344 L 353.554688 129.488281 L 354.019531 128.859375 L 354.476562 128.242188 L 355.394531 127.023438 C 356.007812 126.210938 356.609375 125.402344 357.191406 124.585938 C 357.777344 123.773438 358.335938 122.949219 358.855469 122.109375 C 359.375 121.269531 359.855469 120.410156 360.277344 119.53125 C 360.386719 119.308594 360.484375 119.085938 360.585938 118.863281 L 360.730469 118.53125 L 360.871094 118.183594 C 361.066406 117.726562 361.226562 117.292969 361.367188 116.835938 C 361.648438 115.933594 361.820312 115 361.886719 114.054688 C 361.949219 113.109375 361.910156 112.152344 361.777344 111.199219 C 361.648438 110.246094 361.425781 109.296875 361.144531 108.359375 C 360.863281 107.417969 360.523438 106.488281 360.140625 105.570312 C 359.757812 104.648438 359.339844 103.738281 358.902344 102.832031 C 358.027344 101.015625 357.078125 99.214844 356.1875 97.367188 C 355.742188 96.441406 355.308594 95.503906 354.914062 94.546875 L 354.765625 94.183594 L 354.625 93.820312 C 354.53125 93.582031 354.4375 93.332031 354.351562 93.097656 C 354.175781 92.625 353.996094 92.15625 353.808594 91.691406 C 353.4375 90.761719 353.03125 89.851562 352.574219 88.972656 C 352.117188 88.089844 351.609375 87.246094 351.027344 86.460938 C 350.445312 85.675781 349.785156 84.949219 349.042969 84.328125 C 348.675781 84.015625 348.28125 83.726562 347.875 83.472656 C 347.667969 83.34375 347.460938 83.222656 347.246094 83.109375 L 347.085938 83.023438 L 346.929688 82.949219 C 346.878906 82.917969 346.824219 82.902344 346.769531 82.878906 C 346.71875 82.855469 346.667969 82.832031 346.609375 82.8125 C 345.714844 82.464844 344.75 82.269531 343.773438 82.175781 C 342.792969 82.085938 341.792969 82.097656 340.800781 82.175781 C 339.804688 82.253906 338.808594 82.398438 337.816406 82.582031 C 336.828125 82.769531 335.84375 82.992188 334.863281 83.246094 C 332.902344 83.75 330.96875 84.367188 329.03125 84.984375 L 328.886719 84.5625 C 330.816406 83.914062 332.75 83.265625 334.722656 82.730469 C 335.707031 82.460938 336.699219 82.21875 337.703125 82.015625 C 338.707031 81.816406 339.71875 81.65625 340.742188 81.5625 C 341.765625 81.46875 342.796875 81.441406 343.824219 81.523438 C 344.851562 81.605469 345.878906 81.796875 346.851562 82.164062 C 346.914062 82.183594 346.972656 82.210938 347.035156 82.234375 C 347.09375 82.257812 347.15625 82.28125 347.214844 82.308594 L 347.394531 82.394531 L 347.566406 82.480469 C 347.796875 82.601562 348.023438 82.726562 348.242188 82.863281 C 348.6875 83.128906 349.109375 83.429688 349.507812 83.757812 C 350.308594 84.414062 351.015625 85.171875 351.640625 85.992188 C 352.261719 86.808594 352.804688 87.6875 353.285156 88.589844 C 353.769531 89.496094 354.195312 90.425781 354.585938 91.367188 C 354.78125 91.839844 354.96875 92.316406 355.152344 92.789062 C 355.242188 93.03125 355.332031 93.265625 355.425781 93.5 L 355.714844 94.203125 C 356.113281 95.136719 356.546875 96.054688 356.996094 96.964844 C 357.898438 98.785156 358.867188 100.574219 359.769531 102.402344 C 360.222656 103.316406 360.65625 104.242188 361.054688 105.179688 C 361.457031 106.121094 361.820312 107.078125 362.121094 108.054688 C 362.425781 109.03125 362.667969 110.03125 362.816406 111.046875 C 362.964844 112.0625 363.019531 113.09375 362.957031 114.121094 C 362.894531 115.144531 362.714844 116.164062 362.417969 117.148438 C 362.273438 117.640625 362.09375 118.125 361.898438 118.597656 C 361.714844 119.070312 361.507812 119.542969 361.289062 120.003906 C 360.855469 120.929688 360.359375 121.828125 359.828125 122.699219 C 359.296875 123.570312 358.726562 124.417969 358.140625 125.253906 C 357.554688 126.085938 356.949219 126.90625 356.339844 127.722656 C 355.734375 128.539062 355.125 129.355469 354.53125 130.175781 L 354.421875 130.328125 L 354.367188 130.40625 L 354.316406 130.484375 L 354.113281 130.804688 L 353.699219 131.449219 C 353.421875 131.875 353.140625 132.300781 352.859375 132.722656 C 352.292969 133.570312 351.710938 134.410156 351.105469 135.230469 C 349.894531 136.871094 348.589844 138.449219 347.132812 139.886719 C 346.773438 140.246094 346.398438 140.59375 346.015625 140.933594 L 345.871094 141.0625 L 345.726562 141.1875 C 345.628906 141.269531 345.535156 141.351562 345.433594 141.433594 C 345.335938 141.515625 345.238281 141.601562 345.136719 141.679688 C 345.03125 141.753906 344.925781 141.832031 344.820312 141.90625 C 343.980469 142.492188 343.089844 143.007812 342.152344 143.429688 C 341.214844 143.847656 340.234375 144.167969 339.230469 144.378906 C 338.222656 144.59375 337.195312 144.691406 336.167969 144.683594 C 335.144531 144.675781 334.117188 144.566406 333.113281 144.367188 C 332.105469 144.171875 331.117188 143.890625 330.15625 143.546875 C 328.226562 142.855469 326.398438 141.914062 324.664062 140.84375 C 322.925781 139.769531 321.273438 138.5625 319.691406 137.277344 C 318.898438 136.636719 318.121094 135.972656 317.359375 135.296875 C 316.597656 134.621094 315.855469 133.917969 315.128906 133.203125 C 313.679688 131.769531 312.296875 130.269531 310.9375 128.753906 C 309.582031 127.234375 308.246094 125.699219 306.878906 124.195312 C 306.195312 123.441406 305.503906 122.695312 304.800781 121.964844 C 304.449219 121.601562 304.09375 121.234375 303.734375 120.882812 C 303.550781 120.707031 303.367188 120.53125 303.179688 120.359375 C 302.996094 120.1875 302.808594 120.019531 302.617188 119.851562 C 301.101562 118.511719 299.460938 117.308594 297.722656 116.269531 C 295.984375 115.230469 294.15625 114.34375 292.273438 113.585938 C 291.804688 113.398438 291.332031 113.214844 290.855469 113.039062 C 290.378906 112.867188 289.902344 112.699219 289.417969 112.539062 C 289.179688 112.457031 288.9375 112.378906 288.695312 112.300781 C 288.453125 112.222656 288.214844 112.148438 287.976562 112.085938 C 287.734375 112.023438 287.492188 111.96875 287.246094 111.929688 C 287.003906 111.890625 286.757812 111.863281 286.515625 111.863281 C 286.394531 111.863281 286.277344 111.871094 286.160156 111.886719 C 286.105469 111.894531 286.046875 111.90625 285.992188 111.917969 C 285.9375 111.933594 285.886719 111.949219 285.84375 111.96875 C 285.832031 111.972656 285.824219 111.976562 285.816406 111.980469 C 285.832031 111.972656 285.804688 111.992188 285.800781 111.996094 C 285.78125 112.007812 285.761719 112.027344 285.742188 112.046875 C 285.707031 112.082031 285.671875 112.117188 285.648438 112.160156 C 285.59375 112.238281 285.5625 112.328125 285.558594 112.425781 C 285.546875 112.621094 285.628906 112.839844 285.746094 113.042969 C 285.859375 113.246094 286.011719 113.4375 286.175781 113.621094 C 286.339844 113.804688 286.515625 113.980469 286.699219 114.144531 C 286.792969 114.226562 286.886719 114.308594 286.984375 114.386719 C 287.03125 114.425781 287.078125 114.464844 287.128906 114.503906 L 287.203125 114.558594 C 287.210938 114.566406 287.230469 114.582031 287.246094 114.59375 L 287.28125 114.625 C 287.476562 114.777344 287.679688 114.925781 287.886719 115.074219 C 288.089844 115.222656 288.296875 115.371094 288.503906 115.515625 C 289.335938 116.097656 290.175781 116.675781 291.011719 117.257812 C 291.84375 117.839844 292.679688 118.425781 293.507812 119.015625 C 294.339844 119.605469 295.164062 120.199219 295.988281 120.800781 C 296.808594 121.402344 297.628906 122.011719 298.4375 122.628906 C 300.058594 123.863281 301.65625 125.136719 303.199219 126.472656 C 303.972656 127.140625 304.730469 127.824219 305.464844 128.535156 C 306.199219 129.246094 306.914062 129.984375 307.582031 130.765625 C 307.917969 131.15625 308.238281 131.558594 308.542969 131.976562 C 308.84375 132.398438 309.125 132.835938 309.371094 133.300781 C 309.613281 133.761719 309.820312 134.257812 309.925781 134.792969 C 309.980469 135.058594 310.003906 135.335938 309.984375 135.617188 C 309.964844 135.898438 309.898438 136.183594 309.78125 136.445312 L 309.789062 136.414062 C 309.710938 136.660156 309.605469 136.902344 309.457031 137.125 C 309.3125 137.347656 309.125 137.550781 308.90625 137.710938 C 308.6875 137.871094 308.441406 137.992188 308.1875 138.066406 C 307.933594 138.144531 307.671875 138.183594 307.417969 138.195312 C 306.902344 138.214844 306.398438 138.128906 305.917969 137.992188 C 305.4375 137.855469 304.976562 137.664062 304.539062 137.421875 L 304.523438 137.414062 L 304.507812 137.402344 C 304.164062 137.140625 303.84375 136.863281 303.53125 136.574219 C 303.21875 136.289062 302.917969 135.996094 302.617188 135.695312 C 302.023438 135.101562 301.445312 134.492188 300.878906 133.875 C 299.738281 132.644531 298.628906 131.390625 297.523438 130.136719 C 295.308594 127.628906 293.105469 125.109375 290.855469 122.640625 C 289.730469 121.40625 288.59375 120.183594 287.4375 118.976562 C 286.28125 117.773438 285.109375 116.589844 283.902344 115.4375 C 282.699219 114.285156 281.464844 113.167969 280.183594 112.113281 C 278.902344 111.0625 277.574219 110.066406 276.164062 109.21875 Z M 276.589844 108.519531 " fill-opacity="1" fill-rule="nonzero"/></g></g></g><g clip-path="url(#fd89dc2147)"><g clip-path="url(#02ef0f917d)"><g clip-path="url(#1b0c710f73)"><path fill="#362c2a" d="M 288.769531 42.695312 C 288.894531 42.199219 288.953125 41.683594 288.972656 41.171875 C 288.992188 40.65625 288.972656 40.140625 288.925781 39.625 C 288.832031 38.597656 288.625 37.582031 288.332031 36.59375 C 287.738281 34.621094 286.785156 32.757812 285.53125 31.132812 C 284.90625 30.316406 284.207031 29.558594 283.449219 28.867188 C 282.691406 28.175781 281.871094 27.558594 281.011719 27 C 280.578125 26.722656 280.136719 26.464844 279.683594 26.21875 C 279.234375 25.972656 278.769531 25.753906 278.304688 25.539062 L 277.953125 25.382812 L 277.597656 25.238281 L 277.417969 25.164062 L 277.230469 25.089844 L 277.046875 25.011719 L 276.863281 24.929688 C 276.375 24.707031 275.898438 24.441406 275.453125 24.132812 C 275.007812 23.824219 274.589844 23.472656 274.210938 23.078125 C 273.828125 22.6875 273.488281 22.257812 273.1875 21.808594 C 272.585938 20.898438 272.144531 19.910156 271.785156 18.90625 C 271.429688 17.898438 271.15625 16.878906 270.90625 15.859375 L 270.863281 15.679688 C 270.855469 15.648438 270.847656 15.617188 270.839844 15.589844 L 270.816406 15.507812 L 270.703125 15.144531 C 270.625 14.898438 270.546875 14.65625 270.464844 14.414062 C 270.304688 13.929688 270.128906 13.453125 269.9375 12.984375 C 269.746094 12.515625 269.539062 12.058594 269.308594 11.617188 C 269.078125 11.175781 268.828125 10.75 268.546875 10.355469 C 268.269531 9.964844 267.957031 9.601562 267.617188 9.304688 C 267.445312 9.15625 267.265625 9.023438 267.082031 8.910156 C 266.894531 8.800781 266.703125 8.710938 266.507812 8.648438 C 266.113281 8.519531 265.703125 8.488281 265.285156 8.554688 L 265.207031 8.570312 C 265.179688 8.574219 265.152344 8.578125 265.128906 8.585938 L 265.050781 8.601562 L 264.96875 8.621094 C 264.945312 8.628906 264.917969 8.632812 264.890625 8.640625 L 264.804688 8.667969 C 264.746094 8.683594 264.6875 8.703125 264.632812 8.722656 C 264.402344 8.792969 264.175781 8.875 263.949219 8.96875 C 263.054688 9.332031 262.214844 9.835938 261.4375 10.4375 C 260.664062 11.042969 259.953125 11.738281 259.296875 12.488281 C 258.644531 13.242188 258.046875 14.050781 257.496094 14.894531 C 256.398438 16.582031 255.480469 18.40625 254.6875 20.28125 C 253.898438 22.160156 253.230469 24.097656 252.664062 26.0625 C 252.382812 27.042969 252.128906 28.035156 251.902344 29.027344 C 251.675781 30.023438 251.476562 31.023438 251.328125 32.015625 C 251.308594 32.140625 251.292969 32.261719 251.273438 32.386719 L 251.226562 32.757812 C 251.195312 33.007812 251.167969 33.261719 251.144531 33.511719 C 251.089844 34.015625 251.050781 34.519531 251.015625 35.027344 C 250.953125 36.039062 250.925781 37.050781 250.933594 38.066406 C 250.949219 40.097656 251.101562 42.132812 251.363281 44.152344 C 251.894531 48.199219 252.84375 52.195312 254.074219 56.109375 C 254.6875 58.0625 255.375 60 256.117188 61.917969 C 256.492188 62.875 256.878906 63.828125 257.277344 64.773438 C 257.675781 65.722656 258.085938 66.664062 258.511719 67.601562 C 260.207031 71.351562 262.097656 75.019531 264.132812 78.605469 C 266.167969 82.191406 268.34375 85.703125 270.644531 89.125 C 271.792969 90.839844 272.976562 92.527344 274.191406 94.195312 C 275.40625 95.859375 276.65625 97.5 277.9375 99.105469 C 278.578125 99.910156 279.230469 100.703125 279.890625 101.488281 C 280.550781 102.269531 281.222656 103.039062 281.910156 103.785156 C 282.253906 104.15625 282.601562 104.523438 282.949219 104.878906 C 283.300781 105.230469 283.65625 105.574219 284.003906 105.878906 C 284.089844 105.957031 284.175781 106.027344 284.261719 106.097656 C 284.34375 106.164062 284.425781 106.226562 284.496094 106.277344 C 284.53125 106.300781 284.566406 106.324219 284.589844 106.339844 C 284.617188 106.355469 284.636719 106.367188 284.632812 106.363281 C 284.628906 106.363281 284.621094 106.359375 284.597656 106.351562 C 284.574219 106.339844 284.535156 106.324219 284.453125 106.308594 C 284.367188 106.296875 284.238281 106.261719 283.964844 106.316406 C 283.699219 106.347656 283.269531 106.625 283.117188 106.917969 C 282.949219 107.203125 282.945312 107.375 282.929688 107.472656 C 282.925781 107.578125 282.929688 107.625 282.933594 107.65625 C 282.941406 107.707031 282.9375 107.675781 282.929688 107.636719 L 282.914062 107.539062 L 282.84375 107.152344 C 282.800781 106.890625 282.757812 106.632812 282.714844 106.375 C 282.539062 105.339844 282.375 104.304688 282.222656 103.265625 C 282.070312 102.226562 281.929688 101.183594 281.800781 100.140625 C 281.671875 99.097656 281.550781 98.050781 281.445312 97.003906 C 281.34375 95.957031 281.253906 94.910156 281.175781 93.859375 C 280.871094 89.660156 280.789062 85.429688 281.003906 81.207031 C 281.058594 80.152344 281.128906 79.097656 281.21875 78.042969 C 281.308594 76.988281 281.417969 75.9375 281.554688 74.878906 L 281.65625 74.089844 C 281.695312 73.828125 281.734375 73.5625 281.773438 73.300781 L 281.832031 72.90625 L 281.894531 72.515625 C 281.941406 72.253906 281.980469 71.992188 282.027344 71.730469 C 282.207031 70.683594 282.414062 69.644531 282.632812 68.609375 C 282.855469 67.574219 283.097656 66.546875 283.351562 65.519531 C 283.613281 64.496094 283.882812 63.476562 284.171875 62.460938 C 284.753906 60.433594 285.390625 58.425781 286.082031 56.433594 C 287.464844 52.457031 289.042969 48.554688 290.796875 44.734375 C 291.234375 43.777344 291.683594 42.828125 292.144531 41.882812 C 292.601562 40.9375 293.074219 40 293.554688 39.066406 C 294.515625 37.195312 295.519531 35.347656 296.570312 33.523438 C 297.625 31.699219 298.726562 29.902344 299.894531 28.140625 C 300.480469 27.257812 301.082031 26.386719 301.710938 25.527344 C 301.871094 25.3125 302.027344 25.097656 302.191406 24.882812 L 302.433594 24.5625 L 302.679688 24.246094 C 302.839844 24.035156 303.011719 23.824219 303.179688 23.613281 L 303.566406 23.144531 L 303.699219 22.988281 C 303.785156 22.886719 303.871094 22.78125 303.964844 22.679688 L 304.234375 22.371094 C 304.324219 22.269531 304.421875 22.167969 304.511719 22.066406 C 304.558594 22.015625 304.609375 21.960938 304.652344 21.917969 L 304.789062 21.773438 L 304.925781 21.632812 L 305.046875 21.5 C 305.140625 21.398438 305.234375 21.300781 305.328125 21.199219 C 305.519531 21 305.710938 20.804688 305.902344 20.613281 C 306.679688 19.847656 307.488281 19.128906 308.332031 18.445312 C 309.171875 17.761719 310.042969 17.117188 310.949219 16.515625 C 311.851562 15.917969 312.789062 15.359375 313.761719 14.855469 C 314.734375 14.351562 315.746094 13.902344 316.800781 13.539062 C 317.851562 13.175781 318.949219 12.890625 320.085938 12.738281 C 321.222656 12.585938 322.402344 12.566406 323.574219 12.75 C 324.160156 12.839844 324.746094 12.980469 325.3125 13.171875 C 325.597656 13.269531 325.875 13.378906 326.148438 13.5 C 326.21875 13.53125 326.285156 13.5625 326.355469 13.59375 C 326.425781 13.628906 326.496094 13.664062 326.570312 13.699219 C 326.722656 13.777344 326.851562 13.851562 326.988281 13.933594 C 327.527344 14.261719 328.03125 14.660156 328.46875 15.117188 C 328.910156 15.578125 329.28125 16.089844 329.585938 16.628906 C 329.890625 17.164062 330.128906 17.726562 330.3125 18.289062 C 330.496094 18.855469 330.628906 19.421875 330.726562 19.984375 C 330.921875 21.113281 330.976562 22.226562 330.972656 23.316406 C 330.964844 24.40625 330.890625 25.480469 330.796875 26.535156 C 330.699219 27.589844 330.578125 28.632812 330.472656 29.652344 C 330.449219 29.90625 330.421875 30.15625 330.402344 30.40625 L 330.34375 31.171875 L 330.328125 31.363281 L 330.316406 31.546875 C 330.308594 31.671875 330.300781 31.796875 330.296875 31.921875 L 330.277344 32.292969 C 330.273438 32.417969 330.273438 32.542969 330.269531 32.667969 C 330.257812 33.164062 330.257812 33.664062 330.273438 34.164062 C 330.292969 34.660156 330.320312 35.160156 330.363281 35.65625 C 330.449219 36.652344 330.582031 37.648438 330.757812 38.640625 C 331.113281 40.625 331.632812 42.601562 332.210938 44.578125 L 332.429688 45.320312 L 332.652344 46.0625 L 332.878906 46.8125 L 333.101562 47.5625 C 333.398438 48.566406 333.6875 49.566406 333.976562 50.5625 C 334.554688 52.558594 335.136719 54.539062 335.789062 56.488281 L 336.039062 57.214844 L 336.292969 57.941406 L 336.625 58.839844 L 336.835938 59.390625 L 336.910156 59.574219 L 336.945312 59.664062 C 336.957031 59.695312 336.96875 59.730469 336.980469 59.765625 L 337.046875 59.96875 L 337.113281 60.160156 C 337.195312 60.410156 337.277344 60.664062 337.355469 60.917969 C 337.515625 61.425781 337.664062 61.941406 337.800781 62.460938 C 338.074219 63.496094 338.296875 64.5625 338.433594 65.644531 C 338.570312 66.730469 338.613281 67.839844 338.535156 68.941406 C 338.460938 70.046875 338.265625 71.144531 337.960938 72.203125 C 337.65625 73.261719 337.246094 74.277344 336.769531 75.25 C 336.648438 75.492188 336.527344 75.734375 336.398438 75.972656 L 336.300781 76.148438 L 336.203125 76.332031 L 336.097656 76.515625 C 336.066406 76.578125 336.027344 76.632812 335.992188 76.691406 L 335.777344 77.035156 L 335.5625 77.371094 C 335.488281 77.484375 335.417969 77.59375 335.34375 77.703125 C 335.269531 77.816406 335.199219 77.925781 335.125 78.035156 C 334.828125 78.476562 334.523438 78.910156 334.214844 79.339844 C 333.90625 79.769531 333.589844 80.191406 333.265625 80.609375 C 331.972656 82.285156 330.585938 83.875 329.132812 85.390625 C 327.675781 86.910156 326.15625 88.359375 324.585938 89.75 C 323.019531 91.144531 321.402344 92.476562 319.753906 93.761719 C 318.101562 95.046875 316.417969 96.285156 314.710938 97.484375 C 313.855469 98.085938 312.996094 98.675781 312.128906 99.257812 L 311.476562 99.691406 L 310.816406 100.121094 L 310.148438 100.539062 C 310.039062 100.609375 309.925781 100.675781 309.8125 100.742188 L 309.476562 100.949219 C 307.671875 102.023438 305.804688 102.988281 303.890625 103.835938 C 301.972656 104.683594 300.015625 105.417969 298.027344 106.0625 C 294.046875 107.347656 289.96875 108.253906 285.871094 108.980469 L 285.839844 108.816406 C 289.917969 108.011719 293.96875 107.042969 297.902344 105.699219 C 299.867188 105.027344 301.804688 104.269531 303.691406 103.398438 C 305.574219 102.53125 307.410156 101.550781 309.175781 100.460938 L 309.507812 100.257812 C 309.617188 100.1875 309.726562 100.121094 309.835938 100.050781 L 310.488281 99.625 L 311.136719 99.191406 L 311.777344 98.75 C 312.632812 98.160156 313.484375 97.5625 314.324219 96.953125 C 316.011719 95.738281 317.671875 94.484375 319.292969 93.1875 C 322.535156 90.589844 325.644531 87.816406 328.484375 84.789062 C 329.90625 83.273438 331.257812 81.691406 332.507812 80.035156 C 332.820312 79.621094 333.128906 79.203125 333.425781 78.78125 C 333.726562 78.359375 334.019531 77.929688 334.304688 77.496094 C 334.585938 77.0625 334.867188 76.625 335.132812 76.183594 C 335.167969 76.128906 335.203125 76.074219 335.234375 76.015625 L 335.324219 75.847656 C 335.386719 75.734375 335.449219 75.621094 335.507812 75.507812 C 335.628906 75.277344 335.742188 75.046875 335.855469 74.8125 C 336.300781 73.882812 336.675781 72.914062 336.953125 71.921875 C 337.230469 70.929688 337.40625 69.90625 337.464844 68.878906 C 337.527344 67.847656 337.480469 66.8125 337.34375 65.789062 C 337.207031 64.765625 336.988281 63.753906 336.714844 62.753906 C 336.578125 62.253906 336.429688 61.757812 336.269531 61.265625 C 336.191406 61.019531 336.109375 60.773438 336.027344 60.527344 L 335.898438 60.164062 C 335.878906 60.101562 335.855469 60.042969 335.832031 59.980469 L 335.757812 59.800781 C 335.371094 58.835938 335.011719 57.855469 334.671875 56.871094 C 333.996094 54.902344 333.390625 52.90625 332.796875 50.914062 C 332.5 49.917969 332.203125 48.917969 331.902344 47.925781 L 331.675781 47.179688 L 331.445312 46.433594 C 331.289062 45.9375 331.136719 45.441406 330.988281 44.941406 C 330.390625 42.949219 329.84375 40.933594 329.460938 38.878906 C 329.269531 37.851562 329.125 36.816406 329.027344 35.777344 C 328.980469 35.257812 328.945312 34.734375 328.925781 34.210938 C 328.90625 33.691406 328.902344 33.167969 328.910156 32.644531 C 328.914062 32.121094 328.941406 31.597656 328.976562 31.078125 L 329.03125 30.300781 C 329.050781 30.039062 329.074219 29.777344 329.101562 29.519531 C 329.199219 28.480469 329.3125 27.449219 329.402344 26.414062 C 329.488281 25.382812 329.554688 24.347656 329.554688 23.3125 C 329.554688 22.28125 329.496094 21.246094 329.316406 20.234375 C 329.136719 19.222656 328.832031 18.230469 328.328125 17.34375 C 328.078125 16.902344 327.773438 16.492188 327.421875 16.128906 C 327.070312 15.761719 326.667969 15.445312 326.234375 15.1875 C 326.125 15.121094 326.011719 15.058594 325.902344 15 L 325.730469 14.917969 C 325.671875 14.894531 325.617188 14.863281 325.558594 14.839844 C 325.324219 14.738281 325.085938 14.644531 324.84375 14.5625 C 324.359375 14.402344 323.859375 14.285156 323.355469 14.207031 C 322.339844 14.054688 321.304688 14.074219 320.289062 14.214844 C 319.269531 14.355469 318.269531 14.617188 317.296875 14.957031 C 316.320312 15.300781 315.375 15.722656 314.460938 16.199219 C 313.542969 16.675781 312.65625 17.210938 311.792969 17.785156 C 310.933594 18.359375 310.101562 18.980469 309.300781 19.632812 C 308.5 20.289062 307.726562 20.980469 306.996094 21.710938 C 306.8125 21.894531 306.632812 22.078125 306.453125 22.265625 C 306.363281 22.359375 306.277344 22.453125 306.191406 22.550781 L 306.054688 22.695312 L 305.921875 22.835938 C 305.5625 23.210938 305.222656 23.59375 304.890625 23.992188 L 304.761719 24.140625 L 304.640625 24.289062 L 304.394531 24.589844 C 304.234375 24.796875 304.070312 24.996094 303.914062 25.203125 L 303.675781 25.511719 L 303.445312 25.820312 C 303.285156 26.027344 303.136719 26.238281 302.980469 26.445312 C 302.371094 27.285156 301.785156 28.140625 301.210938 29.007812 C 300.070312 30.742188 298.988281 32.515625 297.953125 34.316406 C 296.917969 36.117188 295.929688 37.945312 294.984375 39.792969 C 294.511719 40.71875 294.046875 41.648438 293.59375 42.585938 C 293.144531 43.519531 292.699219 44.460938 292.269531 45.40625 C 290.546875 49.1875 288.984375 53.042969 287.625 56.96875 C 286.945312 58.929688 286.320312 60.910156 285.75 62.910156 C 285.464844 63.90625 285.199219 64.910156 284.945312 65.917969 C 284.695312 66.925781 284.457031 67.9375 284.242188 68.953125 C 284.027344 69.96875 283.824219 70.984375 283.648438 72.007812 C 283.476562 73.03125 283.316406 74.054688 283.183594 75.085938 C 283.054688 76.113281 282.945312 77.148438 282.855469 78.179688 C 282.765625 79.214844 282.695312 80.25 282.640625 81.289062 C 282.429688 85.433594 282.503906 89.59375 282.800781 93.738281 C 283.101562 97.882812 283.621094 102.007812 284.296875 106.109375 C 284.339844 106.367188 284.382812 106.621094 284.425781 106.878906 L 284.492188 107.261719 L 284.507812 107.359375 C 284.515625 107.390625 284.519531 107.421875 284.527344 107.460938 C 284.53125 107.5 284.535156 107.542969 284.53125 107.589844 C 284.527344 107.636719 284.519531 107.691406 284.480469 107.753906 C 284.445312 107.820312 284.363281 107.871094 284.300781 107.882812 C 284.234375 107.894531 284.183594 107.886719 284.140625 107.878906 C 284.050781 107.859375 283.980469 107.832031 283.917969 107.796875 C 283.789062 107.734375 283.675781 107.660156 283.5625 107.582031 C 283.34375 107.421875 283.140625 107.253906 282.945312 107.082031 C 282.550781 106.734375 282.175781 106.367188 281.808594 105.996094 C 281.441406 105.621094 281.085938 105.242188 280.730469 104.859375 C 280.027344 104.089844 279.34375 103.304688 278.671875 102.507812 C 278 101.710938 277.34375 100.902344 276.695312 100.085938 C 275.402344 98.453125 274.148438 96.792969 272.925781 95.105469 C 271.703125 93.417969 270.515625 91.710938 269.359375 89.976562 C 267.050781 86.511719 264.867188 82.964844 262.828125 79.332031 C 260.792969 75.703125 258.898438 71.984375 257.199219 68.183594 C 255.503906 64.378906 253.996094 60.488281 252.769531 56.503906 C 252.160156 54.511719 251.617188 52.5 251.164062 50.464844 C 250.710938 48.429688 250.347656 46.375 250.09375 44.304688 C 249.84375 42.234375 249.703125 40.152344 249.703125 38.0625 C 249.703125 37.023438 249.738281 35.980469 249.8125 34.941406 C 249.851562 34.421875 249.898438 33.902344 249.957031 33.382812 C 250.011719 32.863281 250.078125 32.347656 250.160156 31.828125 C 250.328125 30.796875 250.542969 29.777344 250.785156 28.761719 C 251.027344 27.75 251.300781 26.742188 251.597656 25.742188 C 252.199219 23.746094 252.902344 21.78125 253.734375 19.867188 C 254.570312 17.957031 255.535156 16.097656 256.699219 14.359375 C 257.28125 13.492188 257.914062 12.65625 258.613281 11.875 C 259.308594 11.09375 260.074219 10.371094 260.910156 9.738281 C 261.75 9.109375 262.667969 8.574219 263.648438 8.195312 C 263.894531 8.097656 264.144531 8.011719 264.394531 7.9375 C 264.457031 7.917969 264.519531 7.902344 264.585938 7.882812 C 264.648438 7.863281 264.710938 7.847656 264.777344 7.832031 L 264.875 7.808594 L 264.972656 7.789062 C 265.007812 7.785156 265.039062 7.777344 265.070312 7.769531 L 265.171875 7.757812 C 265.4375 7.71875 265.707031 7.707031 265.976562 7.734375 C 266.242188 7.757812 266.507812 7.816406 266.765625 7.902344 C 267.019531 7.992188 267.261719 8.109375 267.488281 8.253906 C 267.714844 8.394531 267.929688 8.558594 268.125 8.734375 C 268.519531 9.089844 268.859375 9.5 269.160156 9.933594 C 269.457031 10.367188 269.714844 10.828125 269.949219 11.296875 C 270.183594 11.765625 270.390625 12.246094 270.582031 12.730469 C 270.773438 13.21875 270.945312 13.710938 271.105469 14.210938 C 271.183594 14.457031 271.261719 14.707031 271.335938 14.957031 L 271.445312 15.332031 L 271.472656 15.429688 C 271.480469 15.460938 271.484375 15.492188 271.492188 15.527344 L 271.535156 15.71875 C 271.765625 16.730469 272.015625 17.738281 272.339844 18.71875 C 272.667969 19.699219 273.074219 20.65625 273.625 21.527344 C 273.902344 21.960938 274.214844 22.371094 274.566406 22.746094 C 274.914062 23.125 275.300781 23.464844 275.71875 23.765625 C 276.132812 24.066406 276.578125 24.328125 277.042969 24.550781 L 277.394531 24.714844 L 277.753906 24.863281 L 278.113281 25.019531 L 278.46875 25.179688 C 278.589844 25.234375 278.707031 25.292969 278.824219 25.347656 C 278.941406 25.40625 279.058594 25.460938 279.175781 25.519531 L 279.523438 25.699219 L 279.867188 25.886719 C 280.324219 26.140625 280.773438 26.40625 281.210938 26.695312 C 282.082031 27.273438 282.914062 27.910156 283.675781 28.625 C 284.441406 29.335938 285.144531 30.113281 285.773438 30.949219 C 287.03125 32.621094 287.980469 34.523438 288.558594 36.53125 C 288.699219 37.035156 288.824219 37.542969 288.917969 38.058594 C 288.96875 38.3125 289.007812 38.570312 289.042969 38.832031 C 289.078125 39.089844 289.105469 39.351562 289.125 39.609375 C 289.167969 40.132812 289.179688 40.65625 289.15625 41.179688 C 289.128906 41.703125 289.066406 42.226562 288.925781 42.738281 Z M 288.769531 42.695312 " fill-opacity="1" fill-rule="nonzero"/></g></g></g><g transform="matrix(1, 0, 0, 1, 28, 38)"><g clip-path="url(#74f199e2d3)"><g fill="#362c2a" fill-opacity="1"><g transform="translate(0.626833, 90.798442)"><g><path d="M 2.640625 -88.078125 L 18.0625 -88.078125 L 67.375 -12.859375 L 67.375 -51.265625 C 67.375 -59.835938 66.671875 -66.75 65.265625 -72 C 63.859375 -77.257812 62.023438 -81.109375 59.765625 -83.546875 C 57.503906 -85.984375 55.109375 -87.203125 52.578125 -87.203125 L 52.578125 -88.078125 L 76.359375 -88.078125 L 76.359375 -87.203125 C 73.835938 -87.203125 72.003906 -86.4375 70.859375 -84.90625 C 69.710938 -83.375 68.992188 -80.890625 68.703125 -77.453125 C 68.410156 -74.023438 68.265625 -69.40625 68.265625 -63.59375 L 68.265625 1.765625 L 67.375 1.765625 L 11.625 -83.140625 L 11.625 -36.8125 C 11.625 -28.300781 12.328125 -21.398438 13.734375 -16.109375 C 15.148438 -10.828125 16.988281 -6.96875 19.25 -4.53125 C 21.507812 -2.09375 23.898438 -0.875 26.421875 -0.875 L 26.421875 0 L 2.640625 0 L 2.640625 -0.875 C 5.171875 -0.875 7.003906 -1.632812 8.140625 -3.15625 C 9.285156 -4.6875 10.003906 -7.1875 10.296875 -10.65625 C 10.597656 -14.125 10.75 -18.734375 10.75 -24.484375 L 10.75 -63.59375 C 10.75 -69.40625 10.597656 -74.023438 10.296875 -77.453125 C 10.003906 -80.890625 9.285156 -83.375 8.140625 -84.90625 C 7.003906 -86.4375 5.171875 -87.203125 2.640625 -87.203125 Z M 2.640625 -88.078125 "/></g></g></g><g fill="#362c2a" fill-opacity="1"><g transform="translate(79.626247, 90.798442)"><g><path d="M 5.28125 -17.796875 C 5.28125 -22.191406 6.085938 -25.84375 7.703125 -28.75 C 9.316406 -31.664062 11.445312 -34.03125 14.09375 -35.84375 C 16.738281 -37.664062 19.644531 -39.117188 22.8125 -40.203125 C 25.976562 -41.296875 29.144531 -42.207031 32.3125 -42.9375 C 35.488281 -43.664062 38.398438 -44.425781 41.046875 -45.21875 C 43.691406 -46.019531 45.820312 -47.035156 47.4375 -48.265625 C 49.050781 -49.492188 49.859375 -51.140625 49.859375 -53.203125 C 49.859375 -55.609375 49.0625 -57.546875 47.46875 -59.015625 C 45.882812 -60.484375 43.914062 -61.550781 41.5625 -62.21875 C 39.21875 -62.894531 36.84375 -63.234375 34.4375 -63.234375 C 31.675781 -63.234375 29.03125 -62.894531 26.5 -62.21875 C 23.976562 -61.550781 21.925781 -60.46875 20.34375 -58.96875 C 18.757812 -57.46875 17.96875 -55.484375 17.96875 -53.015625 C 17.96875 -51.378906 18.453125 -50.191406 19.421875 -49.453125 C 20.390625 -48.722656 21.078125 -48.5625 21.484375 -48.96875 C 21.960938 -47.675781 21.628906 -46.5 20.484375 -45.4375 C 19.335938 -44.382812 18.03125 -43.859375 16.5625 -43.859375 C 14.675781 -43.859375 13.144531 -44.5625 11.96875 -45.96875 C 10.800781 -47.382812 10.21875 -49.03125 10.21875 -50.90625 C 10.21875 -53.84375 11.273438 -56.28125 13.390625 -58.21875 C 15.503906 -60.15625 18.394531 -61.625 22.0625 -62.625 C 25.726562 -63.625 29.851562 -64.125 34.4375 -64.125 C 36.90625 -64.125 39.472656 -63.875 42.140625 -63.375 C 44.816406 -62.875 47.296875 -62.140625 49.578125 -61.171875 C 51.867188 -60.203125 53.734375 -59.039062 55.171875 -57.6875 C 56.617188 -56.34375 57.34375 -54.785156 57.34375 -53.015625 C 57.34375 -51.253906 56.722656 -49.84375 55.484375 -48.78125 C 54.253906 -47.726562 52.582031 -46.894531 50.46875 -46.28125 C 48.351562 -45.664062 45.972656 -45.09375 43.328125 -44.5625 C 40.691406 -44.039062 37.976562 -43.441406 35.1875 -42.765625 C 32.394531 -42.085938 29.675781 -41.160156 27.03125 -39.984375 C 24.394531 -38.804688 22.019531 -37.28125 19.90625 -35.40625 C 17.789062 -33.53125 16.113281 -31.109375 14.875 -28.140625 C 13.644531 -25.171875 13.03125 -21.546875 13.03125 -17.265625 C 13.03125 -14.210938 13.628906 -11.46875 14.828125 -9.03125 C 16.035156 -6.59375 17.726562 -4.664062 19.90625 -3.25 C 22.082031 -1.84375 24.609375 -1.140625 27.484375 -1.140625 C 29.890625 -1.140625 32.335938 -1.785156 34.828125 -3.078125 C 37.328125 -4.367188 39.660156 -6.421875 41.828125 -9.234375 C 44.003906 -12.054688 45.753906 -15.710938 47.078125 -20.203125 C 48.398438 -24.703125 49.0625 -30.148438 49.0625 -36.546875 C 49.0625 -37.546875 48.972656 -38.472656 48.796875 -39.328125 C 48.617188 -40.179688 48.207031 -40.695312 47.5625 -40.875 C 47.5625 -41.164062 47.78125 -41.441406 48.21875 -41.703125 C 48.664062 -41.960938 49.238281 -42.09375 49.9375 -42.09375 C 52.113281 -42.09375 53.695312 -41.429688 54.6875 -40.109375 C 55.6875 -38.796875 56.347656 -37.097656 56.671875 -35.015625 C 56.992188 -32.929688 57.15625 -30.710938 57.15625 -28.359375 C 57.15625 -26.421875 57.15625 -24.789062 57.15625 -23.46875 C 57.15625 -22.144531 57.171875 -20.878906 57.203125 -19.671875 C 57.234375 -18.472656 57.25 -17.125 57.25 -15.625 C 57.25 -14.132812 57.25 -12.210938 57.25 -9.859375 C 57.25 -7.398438 57.644531 -5.523438 58.4375 -4.234375 C 59.226562 -2.941406 60.148438 -2.054688 61.203125 -1.578125 C 62.265625 -1.109375 63.175781 -0.875 63.9375 -0.875 L 63.9375 0 L 57.6875 0 C 55.34375 0 53.363281 -0.992188 51.75 -2.984375 C 50.132812 -4.984375 49.328125 -7.628906 49.328125 -10.921875 L 49.328125 -25.984375 C 48.554688 -22.222656 47.554688 -18.671875 46.328125 -15.328125 C 45.097656 -11.984375 43.554688 -9.015625 41.703125 -6.421875 C 39.859375 -3.835938 37.566406 -1.828125 34.828125 -0.390625 C 32.097656 1.046875 28.796875 1.765625 24.921875 1.765625 C 21.171875 1.765625 17.8125 0.925781 14.84375 -0.75 C 11.875 -2.425781 9.535156 -4.742188 7.828125 -7.703125 C 6.128906 -10.671875 5.28125 -14.035156 5.28125 -17.796875 Z M 5.28125 -17.796875 "/></g></g></g><g fill="#362c2a" fill-opacity="1"><g transform="translate(145.326984, 90.798442)"><g><path d="M 26.421875 0 L 2.640625 0 L 2.640625 -0.875 C 5.171875 -0.875 7.003906 -1.632812 8.140625 -3.15625 C 9.285156 -4.6875 10.003906 -7.1875 10.296875 -10.65625 C 10.597656 -14.125 10.75 -18.734375 10.75 -24.484375 L 10.75 -37.875 C 10.75 -43.6875 10.597656 -48.304688 10.296875 -51.734375 C 10.003906 -55.171875 9.285156 -57.65625 8.140625 -59.1875 C 7.003906 -60.71875 5.171875 -61.484375 2.640625 -61.484375 L 2.640625 -62.359375 L 18.3125 -62.359375 L 18.3125 -24.484375 C 18.3125 -18.734375 18.457031 -14.125 18.75 -10.65625 C 19.050781 -7.1875 19.773438 -4.6875 20.921875 -3.15625 C 22.066406 -1.632812 23.898438 -0.875 26.421875 -0.875 Z M 8.1875 -73.890625 C 8.1875 -75.535156 8.757812 -76.929688 9.90625 -78.078125 C 11.050781 -79.222656 12.445312 -79.796875 14.09375 -79.796875 C 15.738281 -79.796875 17.132812 -79.222656 18.28125 -78.078125 C 19.425781 -76.929688 20 -75.535156 20 -73.890625 C 20 -72.253906 19.425781 -70.863281 18.28125 -69.71875 C 17.132812 -68.570312 15.738281 -68 14.09375 -68 C 12.445312 -68 11.050781 -68.570312 9.90625 -69.71875 C 8.757812 -70.863281 8.1875 -72.253906 8.1875 -73.890625 Z M 8.1875 -73.890625 "/></g></g></g><g fill="#362c2a" fill-opacity="1"><g transform="translate(173.509609, 90.798442)"><g><path d="M 2.640625 0 L 2.640625 -0.875 C 5.171875 -0.875 7.003906 -1.632812 8.140625 -3.15625 C 9.285156 -4.6875 10.003906 -7.1875 10.296875 -10.65625 C 10.597656 -14.125 10.75 -18.734375 10.75 -24.484375 L 10.75 -63.59375 C 10.75 -69.40625 10.597656 -74.023438 10.296875 -77.453125 C 10.003906 -80.890625 9.285156 -83.375 8.140625 -84.90625 C 7.003906 -86.4375 5.171875 -87.203125 2.640625 -87.203125 L 2.640625 -88.078125 L 18.3125 -88.078125 L 18.3125 -24.484375 C 18.3125 -18.734375 18.457031 -14.125 18.75 -10.65625 C 19.050781 -7.1875 19.773438 -4.6875 20.921875 -3.15625 C 22.066406 -1.632812 23.898438 -0.875 26.421875 -0.875 L 26.421875 0 Z M 2.640625 0 "/></g></g></g><g fill="#000000" fill-opacity="1"><g transform="translate(202.573938, 90.798442)"><g/></g></g><g fill="#000000" fill-opacity="1"><g transform="translate(233.398689, 90.798442)"><g/></g></g></g></g><g transform="matrix(1, 0, 0, 1, 12, 138)"><g clip-path="url(#468733c96e)"><g fill="#362c2a" fill-opacity="1"><g transform="translate(0.691999, 90.98022)"><g><path d="M 2.640625 -87.203125 L 2.640625 -88.078125 L 26.421875 -88.078125 L 26.421875 -87.203125 C 23.898438 -87.203125 22.066406 -86.4375 20.921875 -84.90625 C 19.773438 -83.375 19.050781 -80.890625 18.75 -77.453125 C 18.457031 -74.023438 18.3125 -69.40625 18.3125 -63.59375 L 18.3125 -24.484375 C 18.3125 -18.785156 19.296875 -14.054688 21.265625 -10.296875 C 23.234375 -6.546875 25.890625 -3.742188 29.234375 -1.890625 C 32.585938 -0.046875 36.347656 0.875 40.515625 0.875 C 44.679688 0.875 48.410156 -0.0625 51.703125 -1.9375 C 54.992188 -3.8125 57.59375 -6.628906 59.5 -10.390625 C 61.40625 -14.148438 62.359375 -18.847656 62.359375 -24.484375 L 62.359375 -63.59375 C 62.359375 -69.40625 62.210938 -74.023438 61.921875 -77.453125 C 61.628906 -80.890625 60.910156 -83.375 59.765625 -84.90625 C 58.617188 -86.4375 56.78125 -87.203125 54.25 -87.203125 L 54.25 -88.078125 L 78.03125 -88.078125 L 78.03125 -87.203125 C 75.507812 -87.203125 73.675781 -86.4375 72.53125 -84.90625 C 71.382812 -83.375 70.664062 -80.890625 70.375 -77.453125 C 70.082031 -74.023438 69.9375 -69.40625 69.9375 -63.59375 L 69.9375 -24.484375 C 69.9375 -18.609375 68.613281 -13.734375 65.96875 -9.859375 C 63.320312 -5.984375 59.769531 -3.078125 55.3125 -1.140625 C 50.851562 0.796875 45.921875 1.765625 40.515625 1.765625 C 35.109375 1.765625 30.144531 0.8125 25.625 -1.09375 C 21.101562 -3.007812 17.492188 -5.90625 14.796875 -9.78125 C 12.097656 -13.65625 10.75 -18.554688 10.75 -24.484375 L 10.75 -63.59375 C 10.75 -69.40625 10.597656 -74.023438 10.296875 -77.453125 C 10.003906 -80.890625 9.285156 -83.375 8.140625 -84.90625 C 7.003906 -86.4375 5.171875 -87.203125 2.640625 -87.203125 Z M 2.640625 -87.203125 "/></g></g></g><g fill="#362c2a" fill-opacity="1"><g transform="translate(81.364767, 90.98022)"><g><path d="M 1.765625 -62.359375 C 4.703125 -62.359375 7.109375 -62.882812 8.984375 -63.9375 C 10.859375 -65 12.3125 -66.378906 13.34375 -68.078125 C 14.375 -69.785156 15.125 -71.625 15.59375 -73.59375 C 16.0625 -75.5625 16.335938 -77.4375 16.421875 -79.21875 C 16.515625 -81.007812 16.5625 -82.492188 16.5625 -83.671875 L 17.4375 -83.671875 L 17.4375 -62.359375 L 24.140625 -62.359375 L 24.140625 -61.484375 L 17.4375 -61.484375 L 17.4375 -19.203125 C 17.4375 -14.617188 17.4375 -10.976562 17.4375 -8.28125 C 17.4375 -5.582031 17.625 -3.644531 18 -2.46875 C 18.382812 -1.289062 19.140625 -0.703125 20.265625 -0.703125 C 21.203125 -0.703125 22.050781 -1.039062 22.8125 -1.71875 C 23.570312 -2.394531 24.1875 -3.082031 24.65625 -3.78125 C 25.125 -4.488281 25.359375 -4.84375 25.359375 -4.84375 L 26.25 -4.40625 C 25.132812 -2.519531 23.796875 -1.019531 22.234375 0.09375 C 20.679688 1.207031 18.789062 1.765625 16.5625 1.765625 C 14.03125 1.765625 12.28125 0.84375 11.3125 -1 C 10.34375 -2.851562 9.859375 -5.222656 9.859375 -8.109375 L 9.859375 -61.484375 L 1.765625 -61.484375 Z M 1.765625 -62.359375 "/></g></g></g><g fill="#362c2a" fill-opacity="1"><g transform="translate(109.371246, 90.98022)"><g><path d="M 35.5 1.765625 C 30.738281 1.765625 26.492188 0.914062 22.765625 -0.78125 C 19.035156 -2.488281 15.878906 -4.851562 13.296875 -7.875 C 10.710938 -10.90625 8.726562 -14.414062 7.34375 -18.40625 C 5.96875 -22.394531 5.28125 -26.648438 5.28125 -31.171875 C 5.28125 -35.703125 5.96875 -39.960938 7.34375 -43.953125 C 8.726562 -47.941406 10.710938 -51.445312 13.296875 -54.46875 C 15.878906 -57.5 19.035156 -59.863281 22.765625 -61.5625 C 26.492188 -63.269531 30.738281 -64.125 35.5 -64.125 C 40.25 -64.125 44.488281 -63.269531 48.21875 -61.5625 C 51.945312 -59.863281 55.132812 -57.5 57.78125 -54.46875 C 60.425781 -51.445312 62.4375 -47.941406 63.8125 -43.953125 C 65.1875 -39.960938 65.875 -35.703125 65.875 -31.171875 C 65.875 -26.648438 65.1875 -22.394531 63.8125 -18.40625 C 62.4375 -14.414062 60.425781 -10.90625 57.78125 -7.875 C 55.132812 -4.851562 51.945312 -2.488281 48.21875 -0.78125 C 44.488281 0.914062 40.25 1.765625 35.5 1.765625 Z M 12.765625 -31.171875 C 12.765625 -24.710938 13.703125 -19.09375 15.578125 -14.3125 C 17.460938 -9.53125 20.125 -5.832031 23.5625 -3.21875 C 27 -0.601562 30.976562 0.703125 35.5 0.703125 C 40.070312 0.703125 44.078125 -0.601562 47.515625 -3.21875 C 50.953125 -5.832031 53.625 -9.53125 55.53125 -14.3125 C 57.4375 -19.09375 58.390625 -24.710938 58.390625 -31.171875 C 58.390625 -37.640625 57.4375 -43.265625 55.53125 -48.046875 C 53.625 -52.828125 50.953125 -56.523438 47.515625 -59.140625 C 44.078125 -61.753906 40.070312 -63.0625 35.5 -63.0625 C 30.976562 -63.0625 27 -61.753906 23.5625 -59.140625 C 20.125 -56.523438 17.460938 -52.828125 15.578125 -48.046875 C 13.703125 -43.265625 12.765625 -37.640625 12.765625 -31.171875 Z M 12.765625 -31.171875 "/></g></g></g><g fill="#362c2a" fill-opacity="1"><g transform="translate(180.532381, 90.98022)"><g><path d="M 1.765625 -61.484375 L 1.765625 -62.359375 L 17.4375 -62.359375 L 17.4375 -52.046875 C 22.78125 -60.097656 29.914062 -64.125 38.84375 -64.125 C 43.769531 -64.125 48.171875 -63.019531 52.046875 -60.8125 C 55.929688 -58.613281 59.003906 -55.472656 61.265625 -51.390625 C 63.523438 -47.304688 64.65625 -42.445312 64.65625 -36.8125 C 64.65625 -29.007812 63.125 -22.359375 60.0625 -16.859375 C 57.007812 -11.367188 52.828125 -7.1875 47.515625 -4.3125 C 42.203125 -1.4375 36.140625 0 29.328125 0 C 27.859375 0 26.59375 -0.015625 25.53125 -0.046875 C 24.476562 -0.078125 23.363281 -0.191406 22.1875 -0.390625 C 21.019531 -0.597656 19.4375 -0.9375 17.4375 -1.40625 L 17.4375 12.0625 C 17.4375 17.820312 17.582031 22.429688 17.875 25.890625 C 18.164062 29.359375 18.882812 31.851562 20.03125 33.375 C 21.175781 34.90625 23.015625 35.671875 25.546875 35.671875 L 25.546875 36.546875 L 1.765625 36.546875 L 1.765625 35.671875 C 4.285156 35.671875 6.117188 34.90625 7.265625 33.375 C 8.410156 31.851562 9.128906 29.359375 9.421875 25.890625 C 9.710938 22.429688 9.859375 17.820312 9.859375 12.0625 L 9.859375 -37.875 C 9.859375 -43.6875 9.710938 -48.304688 9.421875 -51.734375 C 9.128906 -55.171875 8.410156 -57.65625 7.265625 -59.1875 C 6.117188 -60.71875 4.285156 -61.484375 1.765625 -61.484375 Z M 17.4375 -38.484375 L 17.4375 -3.4375 C 18.84375 -2.675781 20.472656 -2.054688 22.328125 -1.578125 C 24.179688 -1.109375 26.160156 -0.875 28.265625 -0.875 C 32.023438 -0.875 35.625 -1.695312 39.0625 -3.34375 C 42.5 -4.988281 45.566406 -7.335938 48.265625 -10.390625 C 50.960938 -13.441406 53.085938 -17.050781 54.640625 -21.21875 C 56.203125 -25.394531 56.984375 -29.976562 56.984375 -34.96875 C 56.984375 -39.894531 56.335938 -44.09375 55.046875 -47.5625 C 53.753906 -51.03125 52.035156 -53.816406 49.890625 -55.921875 C 47.753906 -58.035156 45.394531 -59.578125 42.8125 -60.546875 C 40.226562 -61.515625 37.644531 -62 35.0625 -62 C 32.0625 -62 29.207031 -61.25 26.5 -59.75 C 23.800781 -58.257812 21.613281 -55.796875 19.9375 -52.359375 C 18.269531 -48.921875 17.4375 -44.296875 17.4375 -38.484375 Z M 17.4375 -38.484375 "/></g></g></g><g fill="#362c2a" fill-opacity="1"><g transform="translate(250.460517, 90.98022)"><g><path d="M 26.421875 0 L 2.640625 0 L 2.640625 -0.875 C 5.171875 -0.875 7.003906 -1.632812 8.140625 -3.15625 C 9.285156 -4.6875 10.003906 -7.1875 10.296875 -10.65625 C 10.597656 -14.125 10.75 -18.734375 10.75 -24.484375 L 10.75 -37.875 C 10.75 -43.6875 10.597656 -48.304688 10.296875 -51.734375 C 10.003906 -55.171875 9.285156 -57.65625 8.140625 -59.1875 C 7.003906 -60.71875 5.171875 -61.484375 2.640625 -61.484375 L 2.640625 -62.359375 L 18.3125 -62.359375 L 18.3125 -24.484375 C 18.3125 -18.734375 18.457031 -14.125 18.75 -10.65625 C 19.050781 -7.1875 19.773438 -4.6875 20.921875 -3.15625 C 22.066406 -1.632812 23.898438 -0.875 26.421875 -0.875 Z M 8.1875 -73.890625 C 8.1875 -75.535156 8.757812 -76.929688 9.90625 -78.078125 C 11.050781 -79.222656 12.445312 -79.796875 14.09375 -79.796875 C 15.738281 -79.796875 17.132812 -79.222656 18.28125 -78.078125 C 19.425781 -76.929688 20 -75.535156 20 -73.890625 C 20 -72.253906 19.425781 -70.863281 18.28125 -69.71875 C 17.132812 -68.570312 15.738281 -68 14.09375 -68 C 12.445312 -68 11.050781 -68.570312 9.90625 -69.71875 C 8.757812 -70.863281 8.1875 -72.253906 8.1875 -73.890625 Z M 8.1875 -73.890625 "/></g></g></g><g fill="#362c2a" fill-opacity="1"><g transform="translate(278.643141, 90.98022)"><g><path d="M 5.28125 -17.796875 C 5.28125 -22.191406 6.085938 -25.84375 7.703125 -28.75 C 9.316406 -31.664062 11.445312 -34.03125 14.09375 -35.84375 C 16.738281 -37.664062 19.644531 -39.117188 22.8125 -40.203125 C 25.976562 -41.296875 29.144531 -42.207031 32.3125 -42.9375 C 35.488281 -43.664062 38.398438 -44.425781 41.046875 -45.21875 C 43.691406 -46.019531 45.820312 -47.035156 47.4375 -48.265625 C 49.050781 -49.492188 49.859375 -51.140625 49.859375 -53.203125 C 49.859375 -55.609375 49.0625 -57.546875 47.46875 -59.015625 C 45.882812 -60.484375 43.914062 -61.550781 41.5625 -62.21875 C 39.21875 -62.894531 36.84375 -63.234375 34.4375 -63.234375 C 31.675781 -63.234375 29.03125 -62.894531 26.5 -62.21875 C 23.976562 -61.550781 21.925781 -60.46875 20.34375 -58.96875 C 18.757812 -57.46875 17.96875 -55.484375 17.96875 -53.015625 C 17.96875 -51.378906 18.453125 -50.191406 19.421875 -49.453125 C 20.390625 -48.722656 21.078125 -48.5625 21.484375 -48.96875 C 21.960938 -47.675781 21.628906 -46.5 20.484375 -45.4375 C 19.335938 -44.382812 18.03125 -43.859375 16.5625 -43.859375 C 14.675781 -43.859375 13.144531 -44.5625 11.96875 -45.96875 C 10.800781 -47.382812 10.21875 -49.03125 10.21875 -50.90625 C 10.21875 -53.84375 11.273438 -56.28125 13.390625 -58.21875 C 15.503906 -60.15625 18.394531 -61.625 22.0625 -62.625 C 25.726562 -63.625 29.851562 -64.125 34.4375 -64.125 C 36.90625 -64.125 39.472656 -63.875 42.140625 -63.375 C 44.816406 -62.875 47.296875 -62.140625 49.578125 -61.171875 C 51.867188 -60.203125 53.734375 -59.039062 55.171875 -57.6875 C 56.617188 -56.34375 57.34375 -54.785156 57.34375 -53.015625 C 57.34375 -51.253906 56.722656 -49.84375 55.484375 -48.78125 C 54.253906 -47.726562 52.582031 -46.894531 50.46875 -46.28125 C 48.351562 -45.664062 45.972656 -45.09375 43.328125 -44.5625 C 40.691406 -44.039062 37.976562 -43.441406 35.1875 -42.765625 C 32.394531 -42.085938 29.675781 -41.160156 27.03125 -39.984375 C 24.394531 -38.804688 22.019531 -37.28125 19.90625 -35.40625 C 17.789062 -33.53125 16.113281 -31.109375 14.875 -28.140625 C 13.644531 -25.171875 13.03125 -21.546875 13.03125 -17.265625 C 13.03125 -14.210938 13.628906 -11.46875 14.828125 -9.03125 C 16.035156 -6.59375 17.726562 -4.664062 19.90625 -3.25 C 22.082031 -1.84375 24.609375 -1.140625 27.484375 -1.140625 C 29.890625 -1.140625 32.335938 -1.785156 34.828125 -3.078125 C 37.328125 -4.367188 39.660156 -6.421875 41.828125 -9.234375 C 44.003906 -12.054688 45.753906 -15.710938 47.078125 -20.203125 C 48.398438 -24.703125 49.0625 -30.148438 49.0625 -36.546875 C 49.0625 -37.546875 48.972656 -38.472656 48.796875 -39.328125 C 48.617188 -40.179688 48.207031 -40.695312 47.5625 -40.875 C 47.5625 -41.164062 47.78125 -41.441406 48.21875 -41.703125 C 48.664062 -41.960938 49.238281 -42.09375 49.9375 -42.09375 C 52.113281 -42.09375 53.695312 -41.429688 54.6875 -40.109375 C 55.6875 -38.796875 56.347656 -37.097656 56.671875 -35.015625 C 56.992188 -32.929688 57.15625 -30.710938 57.15625 -28.359375 C 57.15625 -26.421875 57.15625 -24.789062 57.15625 -23.46875 C 57.15625 -22.144531 57.171875 -20.878906 57.203125 -19.671875 C 57.234375 -18.472656 57.25 -17.125 57.25 -15.625 C 57.25 -14.132812 57.25 -12.210938 57.25 -9.859375 C 57.25 -7.398438 57.644531 -5.523438 58.4375 -4.234375 C 59.226562 -2.941406 60.148438 -2.054688 61.203125 -1.578125 C 62.265625 -1.109375 63.175781 -0.875 63.9375 -0.875 L 63.9375 0 L 57.6875 0 C 55.34375 0 53.363281 -0.992188 51.75 -2.984375 C 50.132812 -4.984375 49.328125 -7.628906 49.328125 -10.921875 L 49.328125 -25.984375 C 48.554688 -22.222656 47.554688 -18.671875 46.328125 -15.328125 C 45.097656 -11.984375 43.554688 -9.015625 41.703125 -6.421875 C 39.859375 -3.835938 37.566406 -1.828125 34.828125 -0.390625 C 32.097656 1.046875 28.796875 1.765625 24.921875 1.765625 C 21.171875 1.765625 17.8125 0.925781 14.84375 -0.75 C 11.875 -2.425781 9.535156 -4.742188 7.828125 -7.703125 C 6.128906 -10.671875 5.28125 -14.035156 5.28125 -17.796875 Z M 5.28125 -17.796875 "/></g></g></g></g></g></svg>